<?xml version="1.0" encoding="UTF-8"?>
<svg width="67px" height="36px" viewBox="0 0 67 36" version="1.1" xmlns="http://www.w3.org/2000/svg" xmlns:xlink="http://www.w3.org/1999/xlink">
    <!-- Generator: Sketch 49.3 (51167) - http://www.bohemiancoding.com/sketch -->
    <title>Page 1 Copy</title>
    <desc>Created with Sketch.</desc>
    <defs>
        <polygon id="path-1" points="0.164326386 0.274421798 8.94941754 0.274421798 8.94941754 17.1021077 0.164326386 17.1021077"></polygon>
        <polygon id="path-3" points="0.00130677047 0.184581328 17.7246426 0.184581328 17.7246426 17.9090738 0.00130677047 17.9090738"></polygon>
        <polygon id="path-5" points="0.00130677047 39.203114 109.526967 39.203114 109.526967 0.274421798 0.00130677047 0.274421798"></polygon>
    </defs>
    <g id="Symbols" stroke="none" stroke-width="1" fill="none" fill-rule="evenodd">
        <g id="footer-new" transform="translate(-1095.000000, -225.000000)">
            <g id="Page-1-Copy" transform="translate(1095.000000, 224.500000)">
                <g id="Group-17" transform="translate(0.000000, 0.379682)">
                    <path d="M15.0971192,8.68799811 C15.0971192,5.24465793 12.3058575,2.45339621 8.8625173,2.45339621 C5.41983051,2.45339621 2.62791541,5.24465793 2.62791541,8.68799811 C2.62791541,12.1313383 5.41983051,14.9226 8.8625173,14.9226 C12.3058575,14.9226 15.0971192,12.1313383 15.0971192,8.68799811" id="Fill-1" fill="#FFFFFF"></path>
                    <g id="Group-5" transform="translate(17.641401, 0.000000)">
                        <mask id="mask-2" fill="white">
                            <use xlink:href="#path-1"></use>
                        </mask>
                        <g id="Clip-4"></g>
                        <path d="M0.164326386,0.790596132 L0.164326386,16.5874909 C0.164326386,17.0448606 0.717743679,17.2741988 1.04051598,16.9507731 L8.69753753,9.29440494 C9.03337754,8.95856493 9.03337754,8.41429503 8.69753753,8.07845502 L1.0444363,0.426007172 C0.719703834,0.100621326 0.164326386,0.331266313 0.164326386,0.790596132" id="Fill-3" fill="#FFFFFF" mask="url(#mask-2)"></path>
                    </g>
                    <g id="Group-8" transform="translate(0.000000, 17.641401)">
                        <mask id="mask-4" fill="white">
                            <use xlink:href="#path-3"></use>
                        </mask>
                        <g id="Clip-7"></g>
                        <path d="M17.7246426,17.5737759 L17.7246426,0.864101971 C17.7246426,0.489058847 17.4201651,0.184581328 17.0451219,0.184581328 L0.335447979,0.184581328 C0.0368509272,0.184581328 -0.112120906,0.544596592 0.0989225243,0.755640022 L17.1535839,17.8103014 C17.3646273,18.0213448 17.7246426,17.8717196 17.7246426,17.5737759" id="Fill-6" fill="#FFFFFF" mask="url(#mask-4)"></path>
                    </g>
                    <path d="M31.6027409,35.1711391 C31.502773,35.396557 31.2518731,35.5468356 31.0016265,35.5468356 C30.75138,35.5468356 30.5011334,35.396557 30.4011655,35.1711391 L22.7173552,18.2268998 C22.6422159,18.0511392 22.7918411,17.8257213 22.9924303,17.8257213 L26.572328,17.8257213 C26.8467498,17.8257213 27.0969964,18.0014819 27.1976177,18.2517284 L31.0271086,27.7624039 L34.8565994,18.2517284 C34.9565673,18.0014819 35.2068139,17.8257213 35.4818891,17.8257213 L39.0611334,17.8257213 C39.2617227,17.8257213 39.4113479,18.0511392 39.3113799,18.2268998 L31.6027409,35.1711391 Z" id="Fill-9" fill="#FFFFFF"></path>
                    <path d="M47.2951594,34.8954758 C47.2951594,35.1470291 47.0945702,35.3456583 46.844977,35.3456583 L43.7407438,35.3456583 C43.4904972,35.3456583 43.2905613,35.1470291 43.2905613,34.8954758 L43.2905613,18.275969 C43.2905613,18.0263759 43.4904972,17.8257866 43.7407438,17.8257866 L46.844977,17.8257866 C47.0945702,17.8257866 47.2951594,18.0263759 47.2951594,18.275969 L47.2951594,34.8954758 Z" id="Fill-11" fill="#FFFFFF"></path>
                    <path d="M62.3025688,30.0155375 C62.3025688,29.4895624 62.0529757,28.3892617 60.3247717,28.338951 L57.2969846,28.338951 L57.2969846,31.6169847 L60.2751145,31.6169847 C62.0274937,31.6169847 62.3025688,30.4154093 62.3025688,30.0155375 M62.3025688,23.1824348 C62.3025688,22.7819096 62.0274937,21.5306769 60.2751145,21.5306769 L57.2969846,21.5306769 L57.2969846,25.0092999 L60.3247717,25.0092999 C62.0529757,24.9596426 62.3025688,23.6587526 62.3025688,23.1824348 M66.3574776,30.0155375 C66.3574776,32.3932064 64.880827,35.347161 60.0248679,35.347161 L53.7673975,35.347161 C53.517151,35.347161 53.3172151,35.1465718 53.3172151,34.8963252 L53.3172151,18.2774718 C53.3172151,18.0259185 53.517151,17.8259826 53.7673975,17.8259826 L60.0248679,17.8259826 C64.880827,17.8259826 66.3574776,20.8041125 66.3574776,23.1824348 C66.3574776,24.3833568 65.4309773,26.0109394 64.1046053,26.5610898 C65.4068021,27.0615829 66.3574776,28.4382656 66.3574776,30.0155375" id="Fill-13" fill="#FFFFFF"></path>
                    <mask id="mask-6" fill="white">
                        <use xlink:href="#path-5"></use>
                    </mask>
                    <g id="Clip-16"></g>
                </g>
            </g>
        </g>
    </g>
</svg>